<?xml version="1.0" encoding="iso-8859-1"?>
<!-- Generator: Adobe Illustrator 19.0.0, SVG Export Plug-In . SVG Version: 6.00 Build 0)  -->
<svg version="1.1" id="Layer_1" xmlns="http://www.w3.org/2000/svg" xmlns:xlink="http://www.w3.org/1999/xlink" x="0px" y="0px"
	 viewBox="0 0 512 512" style="enable-background:new 0 0 512 512;" xml:space="preserve">
<g>
	<rect x="66.168" y="240.121" style="fill:#F4B2B0;" width="379.661" height="75.91"/>
	<rect x="175.438" y="434.918" style="fill:#F4B2B0;" width="162.397" height="62.071"/>
</g>
<path style="fill:#B3404A;" d="M369.954,151.452h75.874c8.289,0,15.008-6.72,15.008-15.008V15.008C460.835,6.72,454.116,0,445.827,0
	H66.173c-8.289,0-15.008,6.72-15.008,15.008v121.436c0,8.287,6.719,15.008,15.008,15.008h75.874c8.289,0,15.008-6.72,15.008-15.008
	v-29.921h40.117v118.59H66.173c-8.289,0-15.008,6.72-15.008,15.008v75.91c0,8.287,6.719,15.008,15.008,15.008H197.17v41.337
	c0,8.287,6.719,15.008,15.008,15.008c8.289,0,15.008-6.72,15.008-15.008v-41.337h57.947v88.873H175.44
	c-8.289,0-15.008,6.72-15.008,15.008v62.074c0,8.287,6.719,15.008,15.008,15.008h162.392c8.289,0,15.008-6.72,15.008-15.008v-62.074
	c0-8.287-6.719-15.008-15.008-15.008h-22.684v-88.873h130.68c8.289,0,15.008-6.72,15.008-15.008v-75.91
	c0-8.287-6.719-15.008-15.008-15.008H227.186V91.516c0-8.287-6.719-15.008-15.008-15.008h-70.132
	c-8.289,0-15.008,6.72-15.008,15.008v29.921H81.18V30.015h349.641v91.421h-45.859V91.516c0-8.287-6.719-15.008-15.008-15.008
	h-69.814c-8.289,0-15.008,6.72-15.008,15.008v84.787c0,8.287,6.719,15.008,15.008,15.008c8.289,0,15.008-6.72,15.008-15.008v-69.779
	h39.798v29.921C354.946,144.731,361.665,151.452,369.954,151.452z M322.824,481.985H190.447v-32.059h132.377V481.985z
	 M430.82,301.023H81.18v-45.895h349.641v45.895H430.82z"/>
<g>
</g>
<g>
</g>
<g>
</g>
<g>
</g>
<g>
</g>
<g>
</g>
<g>
</g>
<g>
</g>
<g>
</g>
<g>
</g>
<g>
</g>
<g>
</g>
<g>
</g>
<g>
</g>
<g>
</g>
</svg>
